<?xml version="1.0" encoding="utf-8"?>
<!-- Generator: Adobe Illustrator 19.2.1, SVG Export Plug-In . SVG Version: 6.00 Build 0)  -->
<svg version="1.1" id="Layer_1" xmlns="http://www.w3.org/2000/svg" xmlns:xlink="http://www.w3.org/1999/xlink" x="0px" y="0px"
	 viewBox="0 0 96 96" enable-background="new 0 0 96 96" xml:space="preserve">
<g id="icon_96_39_">
</g>
<g id="icon_64_5_">
</g>
<g id="icon_64_19_">
</g>
<g id="icon_64_33_">
</g>
<g id="icon_64_36_">
</g>
<g id="icon_64">
</g>
<g id="icon_96_5_">
	<g id="New_Symbol_4">
	</g>
	<g id="New_Symbol_2">
	</g>
	<g id="New_Symbol_3">
		<g>
			<path fill="#363545" d="M52.5,48.8c1.7,1.2,2.3,1.2,3.7,1.2s2,0,3.7-1.2s2.9-2.3,4-4.2c1.2-1.7,1.7-3.4,1.7-5.4v-5.9
				c0-5.2-4.2-9.4-9.4-9.4s-9.4,4.2-9.4,9.4v5.9c0,2,0.5,3.7,1.7,5.4C49.6,46.3,51,47.5,52.5,48.8z"/>
			<path fill="#363545" d="M72.6,53.9l-8.9-2.5c-1.7,2.3-4.4,3.9-7.5,3.9s-5.9-1.5-7.5-3.9l-9.1,2.5C34,55.4,30,60.6,30,66.4v7.2
				c0,1.3,1,2.3,2.3,2.3h47.3c1.3,0,2.3-1,2.3-2.3v-7.2C82.2,60.6,78.3,55.4,72.6,53.9z"/>
		</g>
		<path fill="#363545" d="M30.2,48.1c1.2,0.9,1.7,0.9,2.7,0.9s1.5,0,2.7-0.9c1.2-0.9,2-1.7,2.9-3.1c0.9-1.2,1.2-2.4,1.2-3.9v-4.1
			c0-3.7-3.1-6.8-6.8-6.8s-6.8,3.1-6.8,6.8v4.3c0,1.5,0.3,2.7,1.2,3.9C28.1,46.3,29.2,47.1,30.2,48.1z"/>
		<path fill="#363545" d="M25.8,65.1c0-4.8,2-9.2,5.5-12.3c-1.5-0.3-2.9-1.4-3.7-2.6L20.8,52c-3.9,1-6.8,4.8-6.8,9v5.3
			c0,1,0.7,1.7,1.7,1.7h10.1L25.8,65.1z"/>
	</g>
</g>
<g id="icon_96_37_">
</g>
<g id="icon_96_38_">
</g>
<g id="New_Symbol_1_">
	<g id="icon_96_13_">
	</g>
</g>
<g id="hollow-96">
	<g id="icon_96_10_">
	</g>
</g>
<g id="hollow-96_1_">
	<g id="icon_96_9_">
	</g>
</g>
<g id="hollow-96_2_">
	<g id="icon_96_11_">
	</g>
</g>
<g id="hollow-96_3_">
	<g id="icon_96_12_">
	</g>
</g>
<g id="hollow-64">
	<g id="icon_64_10_">
	</g>
</g>
<g id="hollow-64_1_">
	<g id="icon_64_9_">
	</g>
</g>
<g id="hollow-64_2_">
	<g id="icon_64_11_">
	</g>
</g>
<g id="hollow-64_3_">
	<g id="icon_64_12_">
	</g>
</g>
<g id="New_Symbol_1_1_">
	<g id="icon_64_13_">
	</g>
</g>
<g id="New_Symbol">
	<g id="icon_96">
	</g>
</g>
<g id="New_Symbol_1">
	<g id="icon_64_35_">
	</g>
</g>
<g id="New_Symbol_5">
</g>
</svg>
