<?xml version="1.0" encoding="utf-8"?>
<!-- Generator: Adobe Illustrator 19.2.1, SVG Export Plug-In . SVG Version: 6.00 Build 0)  -->
<svg version="1.1" id="Layer_1" xmlns="http://www.w3.org/2000/svg" xmlns:xlink="http://www.w3.org/1999/xlink" x="0px" y="0px"
	 viewBox="0 0 64 64" enable-background="new 0 0 64 64" xml:space="preserve">
<g id="icon_96_39_">
</g>
<g id="icon_64_5_">
</g>
<g id="icon_64_19_">
</g>
<g id="icon_64_33_">
</g>
<g id="icon_64_36_">
</g>
<g id="icon_64">
</g>
<g id="icon_96_5_">
	<g id="New_Symbol_4">
	</g>
	<g id="New_Symbol_2">
		<g>
			<path fill="#363545" d="M35.3,31.1c1.3,0.9,1.8,0.9,2.8,0.9s1.5,0,2.8-0.9c1.3-0.9,2.2-1.8,3.1-3.2c0.9-1.3,1.3-2.6,1.3-4.1v-4.5
				c0-4-3.2-7.2-7.2-7.2s-7.2,3.2-7.2,7.2v4.5c0,1.5,0.4,2.8,1.3,4.1C33.1,29.2,34.1,30.1,35.3,31.1z"/>
			<path fill="#363545" d="M50.8,35L43.9,33c-1.3,1.8-3.4,3-5.8,3c-2.5,0-4.5-1.2-5.8-3l-7,1.9c-4.3,1.2-7.4,5.2-7.4,9.7v5.5
				c0,1,0.8,1.8,1.8,1.8h36.4c1,0,1.8-0.8,1.8-1.8v-5.5C58.1,40.1,55.2,36.1,50.8,35z"/>
		</g>
		<g>
			<path fill="#363545" d="M17.9,30.4c0.9,0.6,1.3,0.6,2,0.6c0.8,0,1.1,0,2-0.6c0.9-0.6,1.5-1.3,2.1-2.3c0.6-0.9,0.9-1.8,0.9-2.9v-3
				c0-2.8-2.3-5-5-5s-5,2.3-5,5v3.1c0,1.1,0.3,2,0.9,2.9C16.4,29,17.2,29.6,17.9,30.4z"/>
			<path fill="#363545" d="M14.6,43.9c0-3.5,1.5-6.8,4-9c-1.1-0.3-2.1-1-2.8-1.9L11,34.2c-2.9,0.8-5,3.5-5,6.6v3.9
				C6,45.5,6.5,46,7.3,46h7.4L14.6,43.9z"/>
		</g>
	</g>
	<g id="New_Symbol_3">
	</g>
</g>
<g id="icon_96_37_">
</g>
<g id="icon_96_38_">
</g>
<g id="New_Symbol_1_">
	<g id="icon_96_13_">
	</g>
</g>
<g id="hollow-96">
	<g id="icon_96_10_">
	</g>
</g>
<g id="hollow-96_1_">
	<g id="icon_96_9_">
	</g>
</g>
<g id="hollow-96_2_">
	<g id="icon_96_11_">
	</g>
</g>
<g id="hollow-96_3_">
	<g id="icon_96_12_">
	</g>
</g>
<g id="hollow-64">
	<g id="icon_64_10_">
	</g>
</g>
<g id="hollow-64_1_">
	<g id="icon_64_9_">
	</g>
</g>
<g id="hollow-64_2_">
	<g id="icon_64_11_">
	</g>
</g>
<g id="hollow-64_3_">
	<g id="icon_64_12_">
	</g>
</g>
<g id="New_Symbol_1_1_">
	<g id="icon_64_13_">
	</g>
</g>
<g id="New_Symbol">
	<g id="icon_96">
	</g>
</g>
<g id="New_Symbol_1">
	<g id="icon_64_35_">
	</g>
</g>
<g id="New_Symbol_5">
</g>
</svg>
